HIERARCHY
ROOT Hips
{
  OFFSET 90.7885 88.945 -76.2838
  CHANNELS 6 Xposition Yposition Zposition Zrotation Xrotation Yrotation
  JOINT LeftUpLeg
  {
    OFFSET 8.64259 1.95398 -2.38835
    CHANNELS 3 Zrotation Xrotation Yrotation
    JOINT LeftLeg
    {
      OFFSET 43.7702 0 0
      CHANNELS 3 Zrotation Xrotation Yrotation
      JOINT LeftFoot
      {
        OFFSET 40.6238 0 0
        CHANNELS 3 Zrotation Xrotation Yrotation
        JOINT LeftToeBase
        {
          OFFSET 12.7242 0 0
          CHANNELS 3 Zrotation Xrotation Yrotation
          End Site
          {
            OFFSET 0 0 0
          }
        }
      }
    }
  }
  JOINT RightUpLeg
  {
    OFFSET -8.2249 1.95398 -2.59336
    CHANNELS 3 Zrotation Xrotation Yrotation
    JOINT RightLeg
    {
      OFFSET 43.5653 0 0
      CHANNELS 3 Zrotation Xrotation Yrotation
      JOINT RightFoot
      {
        OFFSET 40.6238 0 0
        CHANNELS 3 Zrotation Xrotation Yrotation
        JOINT RightToeBase
        {
          OFFSET 12.7242 0 0
          CHANNELS 3 Zrotation Xrotation Yrotation
          End Site
          {
            OFFSET 0 0 0
          }
        }
      }
    }
  }
  JOINT Spine
  {
    OFFSET 0.165834 0.87714 6.61349
    CHANNELS 3 Zrotation Xrotation Yrotation
    JOINT Spine1
    {
      OFFSET 7.38963 1.71661e-005 0
      CHANNELS 3 Zrotation Xrotation Yrotation
      JOINT Spine2
      {
        OFFSET 11.9445 1.14441e-005 0
        CHANNELS 3 Zrotation Xrotation Yrotation
        JOINT Spine3
        {
          OFFSET 14.7254 4.19617e-005 0
          CHANNELS 3 Zrotation Xrotation Yrotation
          JOINT Spine4
          {
            OFFSET 10.9679 0 0
            CHANNELS 3 Zrotation Xrotation Yrotation
            JOINT RightShoulder
            {
              OFFSET 2.46616 -1.6653 3.69651
              CHANNELS 3 Zrotation Xrotation Yrotation
              JOINT RightArm
              {
                OFFSET 13.0012 0 0
                CHANNELS 3 Zrotation Xrotation Yrotation
                JOINT RightForeArm
                {
                  OFFSET 28.7848 1.52588e-005 0
                  CHANNELS 3 Zrotation Xrotation Yrotation
                  JOINT RightHand
                  {
                    OFFSET 26.5688 1.52588e-005 0
                    CHANNELS 3 Zrotation Xrotation Yrotation
                    End Site
                    {
                      OFFSET 0 0 0
                    }
                  }
                }
              }
            }
            JOINT LeftShoulder
            {
              OFFSET 2.38034 -1.29275 -3.7523
              CHANNELS 3 Zrotation Xrotation Yrotation
              JOINT LeftArm
              {
                OFFSET 16.3182 6.10352e-005 0
                CHANNELS 3 Zrotation Xrotation Yrotation
                JOINT LeftForeArm
                {
                  OFFSET 27.0901 0 0
                  CHANNELS 3 Zrotation Xrotation Yrotation
                  JOINT LeftHand
                  {
                    OFFSET 24.5451 1.52588e-005 0
                    CHANNELS 3 Zrotation Xrotation Yrotation
                    End Site
                    {
                      OFFSET 0 0 0
                    }
                  }
                }
              }
            }
            JOINT Neck
            {
              OFFSET 5.0226 -0.0266342 0
              CHANNELS 3 Zrotation Xrotation Yrotation
              JOINT Head
              {
                OFFSET 6.69363 2.86102e-005 0
                CHANNELS 3 Zrotation Xrotation Yrotation
                End Site
                {
                  OFFSET 0 0 0
                }
              }
            }
          }
        }
      }
    }
  }
}
MOTION
Frames:	9
Frame Time:	0.0416667
-320.787 82.7645 -278.499 85.955 4.68778 94.8469 -171.153 12.5938 112.847 -62.2245 49.123 12.5761 98.3563 16.5777 -1.28207 30.5781 7.01501 -10.8652 165.269 54.3585 79.264 -104.965 -16.8518 -0.577812 92.687 -23.8333 -16.2192 7.43542 7.92571 -8.22775 -4.65971 4.9079 -89.6816 17.2143 -9.01135 2.2504 5.57214 -8.90353 2.6477 -17.2166 -9.26753 -0.585454 2.796 -9.26754 -0.585464 112.344 2.96624 -39.486 145.447 -48.433 145.448 -31.3509 -38.253 -39.3362 -1.51297 -4.4299 -62.7265 -55.1279 -53.8183 129.637 76.1313 56.292 -103.02 -81.6608 30.1844 -109.09 -52.9133 -4.8382 5.66799 -3.08323 25.724 9.21402 98.1379 22.3281 2.78494 
-317.089 86.7753 -275.6 84.7226 -2.66877 96.0636 -164.661 4.45331 114.997 -41.761 48.8775 6.85737 86.8863 11.5079 1.76536 41.1994 4.92935 -11.8369 169.766 47.4524 88.7514 -99.9661 -9.43369 -0.296797 93.2015 -22.4798 -15.9448 9.91711 7.70062 -8.74235 -3.98412 4.87086 -90.4044 17.2077 -8.05336 0.614457 5.56155 -8.0185 0.970599 -17.1687 -7.86328 -1.84984 2.84396 -7.86326 -1.84984 110.523 5.47694 -43.3492 126.732 -54.083 132.004 -45.5386 -50.3598 -51.6459 0.0357085 -6.49157 -65.2822 -55.7578 -53.5172 128.859 67.2424 39.3603 -97.3339 18.1231 -37.1068 -120.725 -1.75294 3.52219 -64.0666 -4.65292 26.8076 11.9015 93.4279 22.1086 1.69706 
-313.018 87.7444 -272.172 83.6391 -13.6275 95.7847 -160.532 -4.74334 115.139 -26.3915 40.6152 1.32303 77.2916 7.44187 2.60356 52.3942 3.28493 -14.0381 174.566 44.8614 95.2278 -100.216 -1.40776 -0.993188 95.4461 -19.3395 -10.5916 12.8404 5.68774 -6.49291 -2.99248 4.97522 -91.28 16.9138 -6.55317 -1.4511 5.25897 -6.61065 -1.16009 -17.3799 -5.81325 -3.35918 2.63273 -5.81324 -3.35919 108.903 8.16478 -46.9324 102.534 -57.6966 112.784 -55.5488 -51.6423 -62.8381 4.69434 -9.06116 -64.0349 -56.3502 -53.1012 128.159 58.9163 24.8612 -95.4787 38.1591 -43.2414 -109.219 10.3226 -2.26192 -16.5824 -4.58524 25.7054 20.2005 85.1459 15.367 -3.27164 
-308.064 87.875 -268.565 81.2386 -25.3471 93.8256 -161.572 -15.6012 110.363 -14.0611 28.5389 -0.798785 63.7736 2.3038 5.17965 61.4844 0.930496 -13.4161 -174.761 51.9176 93.1679 -97.832 4.64086 -2.08094 93.9669 -15.4525 -3.01255 12.7714 0.355252 2.2506 -1.96359 4.99196 -92.1452 16.8153 -4.96848 -3.4799 5.1498 -5.11675 -3.25767 -17.395 -3.6941 -4.81151 2.61764 -3.6941 -4.81151 106.952 12.6458 -50.448 83.6422 -56.8248 96.7388 -67.6096 -51.3732 -74.8785 15.2072 -15.3264 -68.551 -57.7387 -49.302 127.318 51.6576 17.3929 -97.7317 34.2653 -38.9915 -109.833 8.36489 -1.48768 -19.1877 -0.743774 23.1608 34.0802 66.876 2.58194 -17.9606 
-302.184 88.4747 -264.478 76.3027 -34.9544 90.0412 -169.241 -21.6026 100.635 -8.40907 12.9906 0.803536 52.8692 -1.66551 3.18178 48.7019 3.33164 -12.1621 -163.003 60.1237 87.0668 -88.8653 0.708028 -3.9024 90.85 -14.7456 -2.29489 12.3305 -0.501321 3.77167 -1.15549 4.72952 -92.7394 17.3148 -3.68893 -4.88439 5.64057 -3.90011 -4.71766 -16.8373 -2.05326 -5.76464 3.17538 -2.05326 -5.76463 105.022 17.8226 -54.7641 76.8135 -52.9458 90.7055 -41.4044 -35.0195 -58.9765 80.6634 -47.9594 -57.5259 -62.8673 -29.2026 126.299 36.6926 20.5719 -110.085 37.6092 -34.6593 -103.286 8.16711 -1.54148 -20.0044 8.21927 23.1062 43.7417 30.9113 0.998964 -38.316 
-295.857 89.5046 -259.531 71.9267 -40.3055 88.7359 -173.894 -22.9844 95.6437 -7.48453 5.46316 3.64046 49.2054 -3.49882 1.68898 19.8524 1.78031 -0.580436 -161.396 63.9356 88.576 -76.8133 -6.58738 -5.18049 86.684 -13.9957 -4.59378 12.4746 -0.903821 4.4207 -0.788981 4.59665 -93.4233 17.5503 -3.3269 -6.33125 5.8689 -3.60181 -6.17944 -16.5503 -1.27568 -7.03483 3.4623 -1.27568 -7.03483 103.507 22.7153 -59.6418 77.2932 -47.797 90.0102 87.9512 51.0682 -109.127 118.504 64.3913 35.677 -72.2748 2.32184 116.293 0.292795 33.9035 -112.104 44.8355 -25.0966 -97.574 7.64621 -1.37208 -18.9602 21.4272 27.5302 46.0596 -8.98593 14.0188 -42.6011 
-289.381 90.0421 -254.481 70.3971 -42.1992 89.0888 -174.069 -25.5994 95.0318 -7.53244 0.687604 3.49612 51.7815 -1.63981 -0.00622293 14.9335 -1.01829 3.34226 -165.805 63.8803 92.7488 -64.51 -12.3968 -5.19805 83.7342 -12.6671 -4.11998 13.1549 -1.49428 5.35177 -0.869753 4.667 -93.9593 17.3592 -3.75685 -7.3426 5.67392 -4.07551 -7.17129 -16.7039 -1.38477 -8.12686 3.3087 -1.38478 -8.12686 102.967 24.1747 -65.4333 79.5519 -41.2307 92.7419 107.94 45.8656 -124.469 87.9839 69.7215 64.0874 -76.4205 10.953 104.619 -14.7223 26.8994 -95.9251 43.2701 -19.0996 -97.5947 7.81032 -1.56391 -20.8838 31.4981 30.8811 43.6607 -32.9585 20.2114 -32.2578 
-283.24 90.1687 -249.588 70.0195 -43.3662 88.3131 -173.819 -27.0361 93.721 -11.7589 -1.13201 1.15578 52.0287 -0.660955 -0.146179 18.3662 0.125643 1.43259 -170.796 62.0228 95.6371 -52.9396 -18.7281 -4.36214 82.122 -11.6974 -3.15497 11.9558 -1.11044 4.82562 -0.880271 4.9692 -93.9884 16.7552 -3.77499 -7.41398 5.06952 -4.09678 -7.24182 -17.3052 -1.38082 -8.20026 2.7074 -1.38082 -8.20027 103.022 20.8607 -71.8029 78.9891 -32.5723 92.4228 113.629 40.0111 -129.25 76.8487 72.1432 77.3419 -82.139 0.519268 80.5397 -24.0964 12.1884 -72.1177 49.2 -14.8236 -96.7014 16.9297 -3.84229 -25.8694 35.917 29.3877 38.2906 -39.8857 18.0042 -22.579 
-277.343 90.0955 -244.855 70.5568 -44.1148 87.6025 -172.629 -25.1746 92.5022 -23.3134 2.04089 -0.841147 50.5969 -1.72686 -0.88127 12.7336 5.89961 -4.05865 -175.952 58.5375 98.1251 -41.6493 -24.491 -2.60986 77.827 -9.61047 -4.22144 15.1514 -1.3054 4.82836 -0.960128 5.32481 -93.8039 16.0548 -3.81888 -7.05378 4.37129 -4.12489 -6.87991 -18.0211 -1.52991 -7.87021 1.99159 -1.52991 -7.8702 102.929 15.1575 -76.7412 75.747 -25.8145 88.4974 110.634 38.1013 -126.813 80.0253 71.875 73.9022 -88.3073 -7.92418 66.6821 -5.70627 5.22752 -60.95 46.1523 -14.9035 -94.6858 14.8542 -3.69146 -27.8187 33.033 27.2724 37.4092 -34.8832 15.6952 -20.1488 
